<?xml version="1.0" encoding="UTF-8" standalone="no"?>
<!-- Created with Inkscape (http://www.inkscape.org/) -->

<svg
   xmlns:dc="http://purl.org/dc/elements/1.1/"
   xmlns:cc="http://creativecommons.org/ns#"
   xmlns:rdf="http://www.w3.org/1999/02/22-rdf-syntax-ns#"
   xmlns:svg="http://www.w3.org/2000/svg"
   xmlns="http://www.w3.org/2000/svg"
   xmlns:sodipodi="http://sodipodi.sourceforge.net/DTD/sodipodi-0.dtd"
   xmlns:inkscape="http://www.inkscape.org/namespaces/inkscape"
   version="1.1"
   id="svg3680"
   width="1440"
   height="1440"
   viewBox="0 0 1440 1440"
   sodipodi:docname="MAudioLogo001.svg"
   inkscape:version="0.92.1 r15371">
  <metadata
     id="metadata3686">
    <rdf:RDF>
      <cc:Work
         rdf:about="">
        <dc:format>image/svg+xml</dc:format>
        <dc:type
           rdf:resource="http://purl.org/dc/dcmitype/StillImage" />
        <dc:title></dc:title>
      </cc:Work>
    </rdf:RDF>
  </metadata>
  <defs
     id="defs3684" />
  <sodipodi:namedview
     pagecolor="#ffffff"
     bordercolor="#666666"
     borderopacity="1"
     objecttolerance="10"
     gridtolerance="10"
     guidetolerance="10"
     inkscape:pageopacity="0"
     inkscape:pageshadow="2"
     inkscape:window-width="1920"
     inkscape:window-height="1017"
     id="namedview3682"
     showgrid="false"
     inkscape:zoom="1.1361111"
     inkscape:cx="507.66556"
     inkscape:cy="666.61931"
     inkscape:window-x="-8"
     inkscape:window-y="-8"
     inkscape:window-maximized="1"
     inkscape:current-layer="svg3680" />
  <path
     style="fill:#000000;stroke-width:0.31999999"
     d="m 83.2,867.9921 c -0.264,-0.0515 -1.56,-0.27152 -2.88,-0.48887 -1.32,-0.21734 -3.192,-0.60297 -4.16,-0.85693 -0.968,-0.25398 -2.192,-0.57497 -2.72,-0.71337 -2.85639,-0.74861 -7.739126,-3.01258 -10.430416,-4.83623 -5.369158,-3.6382 -9.878698,-9.61251 -11.803366,-15.63724 -1.854,-5.80352 -2.729764,-14.31792 -2.124967,-20.65946 0.451415,-4.73328 0.618205,-6.10067 1.190509,-9.76 0.992918,-6.34874 2.175117,-11.6736 3.943002,-17.76 0.408972,-1.408 1.069232,-3.784 1.467244,-5.28 1.167751,-4.38922 4.556602,-14.38525 7.214327,-21.28 1.356861,-3.52 2.957536,-7.696 3.557059,-9.28 0.599523,-1.584 1.60895,-4.104 2.243174,-5.6 0.634224,-1.496 1.832026,-4.376 2.661776,-6.4 0.829751,-2.024 2.393568,-5.57958 3.475149,-7.90131 1.081581,-2.32173 1.966509,-4.28653 1.966509,-4.36624 0,-0.1848 5.33728,-11.35773 5.833856,-12.21245 0.204506,-0.352 1.974717,-3.808 3.933805,-7.68 6.517136,-12.88067 12.081817,-23.22803 17.983589,-33.44 1.6783,-2.904 3.59266,-6.216 4.25414,-7.36 2.73418,-4.7287 9.39852,-15.89808 11.83776,-19.84 2.03969,-3.29622 2.18428,-3.53494 4.7815,-7.89443 1.13556,-1.90608 2.39556,-3.91117 2.8,-4.45578 0.40444,-0.54461 0.73535,-1.09251 0.73535,-1.21757 0,-0.12502 0.576,-1.07555 1.28,-2.11222 0.704,-1.03667 1.28,-1.95421 1.28,-2.03894 0,-0.0847 0.69659,-1.20864 1.54797,-2.49757 0.85139,-1.28893 2.72277,-4.21549 4.15862,-6.50349 1.43586,-2.288 3.5426,-5.6 4.68164,-7.36 1.9356,-2.99082 3.08637,-4.8569 4.92854,-7.99206 0.41623,-0.70836 1.67623,-2.68932 2.8,-4.40208 1.12378,-1.7128 2.04323,-3.19581 2.04323,-3.29556 0,-0.0998 0.576,-1.04857 1.28,-2.10848 0.704,-1.0599 1.28,-1.99062 1.28,-2.06828 0,-0.0777 0.62864,-1.11149 1.39697,-2.29738 0.76834,-1.18589 1.81234,-2.85683 2.32,-3.71325 0.50767,-0.85638 1.06703,-1.79853 1.24303,-2.09366 0.176,-0.29514 0.95252,-1.61043 1.7256,-2.92291 0.77308,-1.31248 2.08438,-3.53834 2.91401,-4.94634 0.82963,-1.408 2.24334,-4.02973 3.14158,-5.82605 0.89825,-1.79632 1.9733,-3.81232 2.389,-4.48 0.99096,-1.59161 4.20025,-9.3311 4.87454,-11.75539 1.06028,-3.81203 0.64321,-7.06771 -1.00141,-7.81706 -1.73541,-0.79068 -6.28911,-0.23276 -10.36332,1.26976 -2.20794,0.81428 -7.17311,3.44666 -9.73328,5.16029 -8.18743,5.48023 -18.09357,15.23683 -29.7923,29.34263 -3.92506,4.73264 -6.98252,8.78809 -13.49305,17.8974 -4.43771,6.20909 -13.8617,20.59428 -16.173812,24.68842 -0.347878,0.616 -0.809174,1.336 -1.025104,1.6 -0.394067,0.48179 -3.169254,5.16909 -4.83126,8.16 -0.489002,0.88 -2.106346,3.76 -3.5941,6.4 -1.48775,2.64 -3.505427,6.312 -4.483728,8.16 -0.978297,1.848 -2.0896,3.864 -2.469561,4.48 -0.90512,1.46739 -11.259091,22.18141 -12.636291,25.28 -2.424807,5.45558 -2.903312,6.4 -3.242724,6.4 -0.502236,0 0.08355,-3.00314 1.029901,-5.28 0.146304,-0.352 0.689338,-1.72 1.206743,-3.04 0.517404,-1.32 1.397427,-3.408 1.955603,-4.64 0.558176,-1.232 1.709677,-4.04 2.558893,-6.24 1.371952,-3.55421 2.985545,-7.28477 4.346595,-10.04915 0.251613,-0.51104 0.457475,-1.06656 0.457475,-1.2345 0,-0.37446 3.186451,-7.20192 7.353674,-15.75635 1.714739,-3.52 3.956009,-8.128 4.980604,-10.24 1.024596,-2.112 2.12625,-4.22464 2.448122,-4.69475 0.321872,-0.47011 0.989206,-1.62211 1.48296,-2.56 1.765827,-3.35418 7.529718,-13.57623 8.582259,-15.22032 0.589811,-0.92131 1.072381,-1.75895 1.072381,-1.86141 0,-0.18973 6.02024,-9.56666 8,-12.46054 0.264,-0.38589 1.4484,-2.12842 2.63199,-3.87229 4.61969,-6.80653 10.56711,-14.44829 17.65556,-22.68541 4.25372,-4.94304 13.11096,-13.48429 17.48443,-16.86067 12.7644,-9.85434 24.68912,-14.61184 34.80865,-13.88736 9.0779,0.64989 13.4424,2.98643 15.80567,8.46157 L 196.32,556 l -0.0366,5.76 c -0.0374,5.88304 -0.18687,6.92256 -1.93303,13.44 -1.71839,6.41382 -6.22663,18.28861 -10.26566,27.04 -0.60922,1.32 -1.63351,3.55046 -2.2762,4.95661 -1.44096,3.15267 -11.5982,23.32003 -13.62033,27.04339 -0.81247,1.496 -2.41999,4.57152 -3.57227,6.8345 -1.15228,2.26294 -3.02225,5.77145 -4.15549,7.79664 -1.13324,2.02518 -2.06043,3.72995 -2.06043,3.78835 0,0.0584 -0.48295,0.94195 -1.07322,1.96336 -0.59026,1.02144 -2.00953,3.65715 -3.15392,5.85715 -2.59658,4.99174 -4.9174,9.36925 -5.85309,11.04 -0.39427,0.704 -1.47643,2.72 -2.40479,4.48 -0.92837,1.76 -2.11479,3.992 -2.63648,4.96 -1.76323,3.27162 -6.56533,12.29232 -9.02854,16.96 -3.73486,7.07741 -19.53894,39.23152 -22.35261,45.47741 -4.40582,9.78016 -6.7198,15.24297 -10.69245,25.24259 -4.674017,11.76506 -5.479655,13.94163 -7.75809,20.96 -2.277287,7.01482 -5.026221,17.27907 -6.084788,22.72 -0.205452,1.056 -0.505955,2.52378 -0.667785,3.2617 -0.506135,2.30796 -0.343706,6.17264 0.367264,8.73827 2.204857,7.95651 9.826662,13.12003 19.366259,13.12003 12.36338,0 25.13507,-6.01677 38.23253,-18.01142 2.18884,-2.00455 4.6965,-4.496 5.57257,-5.53661 0.87608,-1.04058 1.67006,-1.96397 1.7644,-2.05197 2.47498,-2.30851 8.92075,-12.49229 14.14212,-22.34333 0.68311,-1.2888 1.57422,-2.8728 1.98024,-3.52 0.40601,-0.64717 1.46574,-2.54467 2.35496,-4.21667 0.88921,-1.672 2.2586,-4.192 3.04308,-5.6 1.50441,-2.70013 9.52234,-18.07466 9.52234,-18.25926 0,-0.0593 2.46394,-5.11927 5.47543,-11.24432 3.01148,-6.12503 7.49287,-15.24042 9.95863,-20.25642 2.46577,-5.016 5.25096,-10.488 6.18932,-12.16 0.93836,-1.672 2.22625,-4.39059 2.86198,-6.04131 0.63573,-1.65075 3.6434,-7.98675 6.68371,-14.08 3.04031,-6.09328 6.44852,-13.02269 7.57379,-15.39869 1.12528,-2.376 2.4127,-4.968 2.86093,-5.76 0.44824,-0.792 1.30369,-2.52 1.901,-3.84 0.98563,-2.17811 4.28032,-8.69674 9.62335,-19.04 4.99717,-9.67376 7.18768,-13.87965 7.99977,-15.36 0.48275,-0.88 1.88119,-3.544 3.10764,-5.92 3.46196,-6.70678 5.17746,-9.92669 6.30819,-11.84 0.57207,-0.968 1.71542,-2.984 2.54078,-4.48 0.82537,-1.496 1.75835,-3.152 2.07329,-3.68 0.31494,-0.528 1.1947,-2.112 1.95503,-3.52 0.76032,-1.408 1.64897,-2.94224 1.97478,-3.40941 0.32581,-0.46717 0.59238,-0.93673 0.59238,-1.04349 0,-0.10675 0.7301,-1.35907 1.62244,-2.78291 0.89234,-1.42384 1.70942,-2.81545 1.81572,-3.09248 0.34378,-0.89587 6.81189,-11.31267 9.64682,-15.53606 1.51526,-2.25738 2.89902,-4.3368 3.07502,-4.62093 0.176,-0.28413 1.4,-2.00723 2.72,-3.82912 2.44373,-3.37286 2.64918,-3.65286 5.05886,-6.89443 3.73727,-5.02746 10.48654,-12.00375 14.43374,-14.91927 1.48092,-1.09382 4.06152,-2.65475 5.73465,-3.46867 2.93304,-1.42685 3.16644,-1.48502 6.51301,-1.62288 5.36878,-0.22121 6.64165,0.47536 8.67465,4.74707 1.25008,2.62666 1.95258,5.61552 1.95376,8.31258 0.003,3.81782 -0.69536,11.8095 -1.22816,14.08 -0.80259,3.42045 -2.36931,10.6503 -2.53107,11.68 -0.5012,3.19094 -7.52486,24.3567 -10.08795,30.4 -0.37323,0.88 -1.30975,3.328 -2.08116,5.44 -3.29318,9.01619 -5.75542,15.48525 -8.46496,22.24 -1.58847,3.96 -3.53208,8.928 -4.31913,11.04 -1.78531,4.79078 -4.37453,11.2799 -5.42652,13.6 -0.43892,0.968 -1.19098,2.768 -1.67125,4 -0.48027,1.232 -0.99395,2.528 -1.14152,2.88 -0.96106,2.29245 -2.29868,5.60646 -4.52063,11.2 -1.39827,3.52 -2.87972,7.192 -3.29212,8.16 -0.4124,0.968 -1.28126,3.128 -1.9308,4.8 -0.64954,1.672 -1.86568,4.696 -2.70252,6.72 -3.25268,7.86701 -15.87311,43.39069 -17.28024,48.64 -0.16512,0.616 -0.80018,2.776 -1.41123,4.8 -2.20587,7.30653 -4.01702,13.63158 -4.35244,15.2 -0.18819,0.88 -0.69422,2.896 -1.12451,4.48 -2.40013,8.83549 -3.52448,14.45005 -5.28675,26.4 -1.0901,7.39194 -1.44932,21.57581 -0.67266,26.56 1.6511,10.59581 6.24698,17.204 13.2646,19.07245 2.40405,0.64009 6.9475,0.55488 9.88506,-0.18541 7.3686,-1.85693 14.03811,-6.98608 22.23393,-17.09888 0.97254,-1.2 4.14053,-5.65533 7.10729,-9.99539 2.77178,-4.05482 4.0229,-6.07847 7.42752,-12.01376 3.33305,-5.8105 3.56303,-6.23757 7.98022,-14.81901 6.17561,-11.99757 10.57075,-20.90509 14.21046,-28.8 0.48685,-1.056 1.86259,-4.008 3.05725,-6.56 2.10131,-4.48883 3.29142,-7.08454 4.47488,-9.76 0.31142,-0.704 1.22985,-2.6895 2.04096,-4.41226 0.81113,-1.72272 1.47478,-3.19366 1.47478,-3.2687 0,-0.0751 0.83459,-1.83357 1.85466,-3.90778 1.02006,-2.07417 2.40041,-5.06726 3.06742,-6.65126 0.66704,-1.584 1.83594,-4.248 2.59757,-5.92 C 348.78506,717.07331 352,709.81715 352,709.59101 c 0,-0.0995 1.2247,-2.76925 2.7216,-5.93283 1.49686,-3.16356 3.02426,-6.43284 3.39414,-7.26506 0.36992,-0.83222 1.14256,-2.52598 1.71696,-3.76394 0.5744,-1.23795 1.80964,-4.04595 2.74493,-6.24 0.93533,-2.19404 2.45219,-5.51436 3.37088,-7.37846 0.91866,-1.86413 2.49059,-5.24813 3.49319,-7.52 1.00259,-2.2719 2.18592,-4.92272 2.62963,-5.89072 0.44371,-0.968 1.05949,-2.336 1.36845,-3.04 0.30892,-0.704 1.71401,-3.728 3.12243,-6.72 4.67097,-9.92288 8.06064,-17.33939 11.33421,-24.79898 1.04243,-2.37545 2.25824,-4.93824 2.70179,-5.6951 0.44355,-0.75686 1.94553,-3.63734 3.33776,-6.40102 1.39219,-2.76368 3.33885,-6.5369 4.32589,-8.3849 0.98707,-1.848 2.81216,-5.376 4.05574,-7.84 5.72154,-11.33629 11.66384,-22.1095 15.97373,-28.96 0.71974,-1.144 1.56569,-2.52934 1.8799,-3.07856 0.31421,-0.54922 1.27095,-1.98922 2.12605,-3.2 0.8551,-1.21078 1.82848,-2.6297 2.16307,-3.15312 0.69002,-1.07949 0.59504,-0.95414 2.67328,-3.52832 0.85251,-1.056 1.68423,-2.15718 1.84823,-2.44707 0.66182,-1.16999 5.26361,-5.93843 7.81814,-8.10131 6.00205,-5.08183 9.2583,-6.45335 14.70355,-6.193 2.41709,0.11556 2.94752,0.25287 4.19184,1.08503 3.61389,2.41677 5.18957,7.27142 4.96231,15.28864 -0.22135,7.80816 -2.23024,19.58563 -4.64762,27.24771 -0.33318,1.056 -0.91693,3 -1.29718,4.32 -3.13882,10.89526 -3.97376,13.54138 -7.37127,23.36 -1.43113,4.136 -3.57766,10.40109 -4.77005,13.92243 -1.19238,3.52135 -2.82134,8.05735 -3.61987,10.08 -0.79853,2.02266 -1.95289,5.11757 -2.56521,6.87757 -1.66944,4.79824 -4.64266,12.70618 -6.13597,16.32 -1.34141,3.24618 -2.44794,6.13696 -5.60407,14.64061 -3.376,9.09606 -5.00208,13.3399 -5.91587,15.43939 -0.22979,0.528 -0.81101,1.968 -1.29158,3.2 -0.48058,1.232 -0.99379,2.528 -1.14048,2.88 -1.55443,3.7297 -2.97034,7.38067 -4.83987,12.48 -2.3482,6.4049 -3.81575,10.37459 -5.20519,14.08 -1.38537,3.69462 -2.40573,6.5633 -3.38637,9.52064 -0.51075,1.54035 -1.67225,4.78035 -2.58112,7.2 -2.27408,6.05437 -6.54275,19.04333 -8.91244,27.11936 -1.08452,3.696 -2.23549,7.584 -2.55776,8.64 -0.52877,1.73264 -1.6842,6.31482 -3.50999,13.92 -2.1231,8.84368 -3.89539,18.27261 -4.51107,24 -0.45283,4.21261 -0.14486,20.04045 0.44083,22.65504 2.98976,13.3465 19.84647,18.93571 40.68445,13.48979 4.7511,-1.24166 6.95837,-1.93728 10.05421,-3.16851 3.86275,-1.53626 9.4024,-4.19885 13.14579,-6.31846 15.63315,-8.85194 22.95318,-14.07988 28.56758,-20.40292 1.4138,-1.59222 3.13149,-3.5239 3.81709,-4.29264 1.86083,-2.08649 1.91123,-1.39164 0.10135,1.3977 -3.37306,5.1985 -14.76868,17.3065 -19.85773,21.09907 -6.88291,5.12944 -9.82397,7.1465 -15.18829,10.41661 -3.59165,2.18947 -10.77213,5.90266 -13.68,7.07424 -0.396,0.15955 -1.116,0.45334 -1.6,0.6529 -0.484,0.19955 -1.168,0.4815 -1.52,0.62659 -3.26934,1.34739 -10.38899,3.2304 -14.95654,3.95568 -4.05805,0.64441 -11.51751,0.64521 -15.0081,0.003 -7.43197,-1.37027 -13.15155,-4.31104 -18.07277,-9.29226 -3.53821,-3.58131 -5.05728,-6.74195 -6.56361,-13.65648 -1.9537,-8.96806 0.24617,-29.17005 5.15702,-47.35798 0.17821,-0.66 0.46627,-1.74 0.64016,-2.4 0.8361,-3.17347 3.58051,-12.72506 4.26128,-14.83088 0.42125,-1.30301 0.95667,-3.01712 1.18986,-3.80912 0.23318,-0.792 0.54294,-1.5768 0.68835,-1.744 0.14537,-0.1672 0.26435,-0.56515 0.26435,-0.88435 0,-0.31917 0.1407,-0.83037 0.3127,-1.136 0.17197,-0.3056 0.66941,-1.63565 1.10538,-2.95565 1.3351,-4.04215 5.51491,-15.70855 6.24842,-17.44 0.14912,-0.352 0.5872,-1.504 0.9735,-2.56 0.3863,-1.056 0.82365,-2.208 0.97187,-2.56 0.14823,-0.352 1.08439,-2.8 2.08035,-5.44 3.13751,-8.31635 4.3465,-11.49757 4.65175,-12.24 0.16281,-0.396 0.44003,-1.08 0.61603,-1.52 0.176,-0.44 0.45338,-1.124 0.61638,-1.52 0.16301,-0.396 1.54336,-3.96 3.0674,-7.92 2.68934,-6.98775 2.94803,-7.64989 3.71904,-9.52 0.56067,-1.35994 0.68841,-1.68829 3.64096,-9.36 1.52406,-3.96 2.88918,-7.488 3.03356,-7.84 0.14442,-0.352 0.8656,-2.224 1.60266,-4.16 0.73706,-1.936 1.45981,-3.808 1.60608,-4.16 0.45955,-1.10583 2.76723,-7.22397 3.98304,-10.56 0.64144,-1.76 1.28826,-3.488 1.43738,-3.84 0.14912,-0.352 0.5872,-1.504 0.9735,-2.56 0.3863,-1.056 0.8183,-2.208 0.96,-2.56 0.1417,-0.352 0.5737,-1.504 0.96,-2.56 0.3863,-1.056 0.82355,-2.208 0.97168,-2.56 0.1481,-0.352 1.07891,-2.944 2.06848,-5.76 0.98957,-2.816 2.01994,-5.696 2.28973,-6.4 0.26979,-0.704 0.70019,-1.928 0.95645,-2.72 0.25622,-0.792 0.59622,-1.728 0.75548,-2.08 0.66362,-1.46656 9.48877,-27.8665 11.33904,-33.92 0.64551,-2.112 1.59831,-5.208 2.11728,-6.88 0.51895,-1.672 1.10647,-3.616 1.30557,-4.32 0.19911,-0.704 0.61315,-2.072 0.9201,-3.04 0.30694,-0.968 0.87347,-2.84 1.25897,-4.16 0.38548,-1.32 0.8257,-2.76 0.97828,-3.2 0.94681,-2.7304 2.23788,-7.91616 2.5494,-10.24 0.20058,-1.496 0.50877,-3.656 0.6849,-4.8 0.34704,-2.25421 0.15312,-5.84359 -0.41936,-7.76243 -0.42115,-1.41152 -2.18698,-3.58135 -3.4433,-4.23101 -0.62646,-0.32397 -1.80579,-0.4344 -4.05852,-0.38007 -2.89981,0.0699 -3.38285,0.17572 -5.5648,1.21895 -6.19399,2.96137 -11.15476,8.41267 -17.85594,19.6216 -1.58256,2.64713 -3.49126,5.96496 -4.2416,7.37296 -2.04832,3.84381 -8.02237,15.94486 -9.39965,19.04 -0.66566,1.496 -1.62477,3.63005 -2.13126,4.74233 -0.5065,1.11226 -0.92093,2.09844 -0.92093,2.19149 0,0.0931 -0.58874,1.41501 -1.30832,2.93767 -1.48189,3.13574 -2.40499,5.09632 -4.76896,10.12851 -0.90947,1.936 -2.58992,5.896 -3.73437,8.8 -1.91894,4.86941 -4.51142,11.31766 -5.24265,13.04 -0.7528,1.77312 -0.97024,2.30864 -1.91648,4.72 -0.55248,1.408 -1.12157,2.848 -1.26458,3.2 -0.14304,0.352 -0.44019,1.144 -0.66035,1.76 -0.22016,0.616 -0.57856,1.552 -0.79642,2.08 -2.39273,5.79859 -3.02905,7.39529 -3.02851,7.59913 0,0.13156 -0.44294,1.21156 -0.98512,2.4 -1.39434,3.05655 -1.32224,2.88192 -3.66778,8.88087 -1.16982,2.992 -2.32339,5.872 -2.56345,6.4 -0.24003,0.528 -1.50173,3.624 -2.80378,6.88 -1.30201,3.256 -2.65942,6.568 -3.01651,7.36 -0.35706,0.792 -1.01491,2.376 -1.46189,3.52 -0.44697,1.144 -1.60393,4.024 -2.57101,6.4 -0.96704,2.376 -2.35657,5.832 -3.08777,7.68 -0.73123,1.848 -1.69491,4.224 -2.14151,5.28 -1.08518,2.56601 -1.09401,2.58813 -2.93577,7.36 -1.72749,4.47574 -6.16672,15.36713 -6.9257,16.99174 -0.25481,0.54544 -2.13235,5.00944 -4.17229,9.92 -2.03993,4.91053 -4.22089,10.08026 -4.84652,11.48826 -0.62564,1.408 -1.35242,3.064 -1.61504,3.68 -0.26266,0.616 -0.89325,2.02646 -1.40138,3.13437 -0.5081,1.1079 -0.92384,2.07152 -0.92384,2.1414 0,0.0699 -0.792,1.80618 -1.76,3.8585 -0.968,2.05229 -1.76,3.79773 -1.76,3.87875 0,0.45213 -14.79846,30.38829 -16.8207,34.02698 -0.63579,1.144 -1.55579,2.8 -2.04444,3.68 -1.58354,2.85177 -5.50622,9.22787 -6.93875,11.27856 -0.76786,1.0992 -1.39611,2.0767 -1.39611,2.17225 0,0.32087 -3.93239,6.03616 -6.5978,9.58919 -3.65893,4.87741 -4.76615,6.14381 -9.37414,10.72201 -7.365,7.31738 -16.7643,12.71152 -24.98806,14.34032 -5.99715,1.18781 -7.63304,1.26221 -11.84,0.53869 -3.76699,-0.64784 -4.61445,-0.88166 -7.3628,-2.03133 -4.03252,-1.68688 -7.03023,-3.6462 -9.78826,-6.39772 -2.41849,-2.4128 -2.77546,-2.9538 -5.36,-8.12314 -1.52291,-3.04755 -2.76894,-5.77206 -2.76894,-6.056 0,-0.28394 -0.20399,-1.00445 -0.4533,-1.60115 -0.5211,-1.24717 -1.71322,-6.00701 -2.15221,-8.59325 -1.59659,-9.40614 -0.75714,-22.83478 2.50048,-40 1.17919,-6.21347 1.58198,-7.88058 3.47913,-14.4 1.14798,-3.94496 1.47019,-5.07446 2.03106,-7.12 1.19353,-4.35283 7.16259,-22.14787 9.15063,-27.28 0.47724,-1.232 1.5595,-4.04 2.40501,-6.24 1.82444,-4.74717 10.73676,-27.22614 11.38671,-28.72 0.24887,-0.572 0.66849,-1.544 0.93249,-2.16 0.264,-0.616 0.69027,-1.588 0.94726,-2.16 0.257,-0.572 1.39225,-3.272 2.52278,-6 1.13053,-2.728 2.58837,-6.112 3.23963,-7.52 0.65127,-1.408 1.80822,-4.072 2.57102,-5.92 0.76279,-1.848 2.20405,-5.16 3.20279,-7.36 0.99875,-2.2 2.36569,-5.368 3.03764,-7.04 0.67195,-1.672 1.64665,-3.976 2.166,-5.12 2.45754,-5.41331 2.687,-5.93581 4.07554,-9.28 0.8524,-2.05293 1.41618,-3.33981 2.91317,-6.64947 0.42029,-0.92922 0.76417,-1.76349 0.76417,-1.85392 0,-0.24487 3.06388,-7.87091 4.49036,-11.17661 0.68353,-1.584 2.10257,-5.112 3.15343,-7.84 1.05085,-2.728 2.41184,-6.184 3.02442,-7.68 2.76398,-6.75002 5.0647,-12.53581 5.97501,-15.02582 0.54407,-1.4882 1.2126,-3.2162 1.48562,-3.84 0.89379,-2.04212 1.03338,-2.39738 1.51429,-3.85418 0.26145,-0.792 0.86548,-2.376 1.3423,-3.52 1.65796,-3.97789 3.71315,-9.77178 4.1431,-11.68 0.23793,-1.056 0.58743,-2.496 0.77667,-3.2 0.82015,-3.05114 1.07693,-4.33235 1.92403,-9.6 0.67363,-4.18896 0.98517,-7.03366 1.17402,-10.72 0.18672,-3.6448 0.1807,-3.68726 -0.62947,-4.43898 -0.65907,-0.61152 -1.03014,-0.71916 -1.90989,-0.55411 -4.74213,0.88963 -14.09272,12.14928 -22.25397,26.79751 -1.43546,2.57641 -2.60992,4.78464 -2.60992,4.90713 0,0.12253 -1.296,2.86231 -2.88,6.08845 -1.584,3.22614 -2.88,5.94832 -2.88,6.04931 0,0.10103 -1.008,2.2849 -2.24,4.85312 -1.232,2.56823 -2.24,4.73325 -2.24,4.8112 0,0.0779 -0.84798,1.90224 -1.8844,4.05405 -2.22051,4.61011 -4.1956,8.86778 -4.1956,9.04435 0,0.0689 -0.6886,1.5344 -1.53021,3.25664 -0.84162,1.72224 -2.09021,4.49933 -2.77466,6.17133 -1.16535,2.84678 -2.17678,5.13181 -4.32017,9.76 -1.65867,3.58154 -4.25752,9.26538 -5.99894,13.12 -0.95415,2.112 -2.37605,5.17395 -3.15976,6.80438 -0.78372,1.6304 -1.66064,3.5744 -1.94872,4.32 -0.28808,0.74557 -0.64613,1.49242 -0.79566,1.65962 -0.14953,0.1672 -0.27188,0.48067 -0.27188,0.69664 0,0.21594 -0.504,1.48374 -1.12,2.81734 -0.616,1.3336 -1.12,2.504 -1.12,2.60093 0,0.0969 -0.26942,0.78029 -0.59872,1.51866 -0.3293,0.73833 -1.27718,3.07043 -2.10639,5.18243 -0.82922,2.112 -1.63261,4.128 -1.7853,4.48 -1.24714,2.87498 -3.20555,7.71408 -4.76748,11.78013 -1.02679,2.67293 -2.40648,6.01187 -3.06599,7.41987 -0.65951,1.408 -1.74464,4 -2.41141,5.76 -1.17335,3.09718 -5.14477,13.09939 -5.71759,14.4 -0.15502,0.352 -0.51784,1.17693 -0.80625,1.83315 -0.28841,0.65623 -0.86765,2.09623 -1.28719,3.2 -1.17544,3.09245 -3.17185,7.78675 -4.66405,10.96685 -1.63556,3.48563 -5.36029,11.99018 -7.07759,16.16 -0.6886,1.672 -1.67951,3.94646 -2.20202,5.05437 -0.52251,1.1079 -0.95002,2.08387 -0.95002,2.16886 0,0.32845 -3.99102,8.88343 -8.92389,19.1288 -1.42786,2.9656 -2.59611,5.53539 -2.59611,5.71063 0,0.17523 -0.2041,0.7008 -0.45355,1.16796 -0.24945,0.46717 -1.70233,3.44138 -3.22863,6.60938 -1.52629,3.168 -3.57969,7.2 -4.5631,8.96 -0.98342,1.76 -2.06496,3.704 -2.40341,4.32 -0.33846,0.616 -1.35696,2.31776 -2.26335,3.7817 -0.90638,1.46393 -2.37244,3.83993 -3.25792,5.28 -2.30983,3.75651 -10.17572,14.53513 -12.65293,17.3383 -6.74081,7.62774 -9.46792,10.24944 -15.49711,14.89802 -6.15432,4.74508 -17.13826,10.22115 -25.40384,12.66515 -1.51588,0.44822 -3.18816,0.95168 -3.71616,1.11875 -0.528,0.1671 -1.608,0.44909 -2.4,0.62659 -0.792,0.17754 -2.016,0.46061 -2.72,0.62906 -4.1123,0.98397 -9.46649,1.97177 -13.76,2.53859 -1.98456,0.26202 -20.694422,0.3951 -21.92,0.15594 z m 847.12886,-5.28397 c -11.19923,-1.12557 -17.76012,-7.01923 -19.03302,-17.09728 -0.91795,-7.26781 1.60042,-14.4289 7.21837,-20.52583 3.6128,-3.9208 7.1856,-6.1583 12.26739,-7.68249 2.3367,-0.70087 3.65245,-0.87226 7.6984,-1.00285 2.684,-0.0866 4.88496,-0.176 4.89101,-0.19859 0.006,-0.0227 0.69421,-4.79309 1.52921,-10.60109 l 1.51824,-10.56 4.26816,-0.0895 4.2682,-0.0896 -0.18704,1.04956 c -0.10285,0.57725 -2.22135,15.52154 -4.70775,33.20954 -2.4864,17.688 -4.61625,32.26202 -4.73305,32.38669 -0.35687,0.38096 -5.78,1.16035 -9.16698,1.31744 -1.76,0.0816 -4.384,0.0294 -5.83114,-0.116 z m 7.53879,-7.18909 c 0.11235,-0.11238 4.47075,-30.88496 4.52073,-31.91904 0.0202,-0.41619 -5.17132,-0.24925 -7.50838,0.24141 -9.6737,2.03101 -16.57139,11.88848 -14.88957,21.27859 1.10637,6.17712 4.816,9.66858 11.20957,10.55024 1.95158,0.26912 6.34698,0.16944 6.66765,-0.1512 z m 348.05235,7.18499 c -7.0612,-0.96029 -11.913,-5.9056 -13.4663,-13.72579 -0.417,-2.09917 -0.4985,-3.74074 -0.3656,-7.36 0.2088,-5.68339 0.8842,-8.52509 3.0847,-12.97824 2.7478,-5.56102 6.9976,-9.70438 11.7072,-11.41421 2.6701,-0.96941 7.9875,-1.18589 10.6009,-0.43158 5.3878,1.55501 9.3581,5.79299 11.0277,11.77117 0.6199,2.2198 0.7323,3.36518 0.7136,7.27462 -0.034,7.07805 -1.5051,12.65965 -4.5666,17.3231 -4.7319,7.20778 -11.2994,10.55226 -18.7356,9.54093 z m 6.2383,-8.14317 c 6.4564,-3.27168 10.4474,-16.57139 7.6706,-25.56153 -1.2261,-3.96973 -3.5591,-6.00506 -6.8831,-6.00506 -3.2224,0 -5.7233,1.64602 -8.1508,5.36448 -2.9348,4.49575 -4.3359,10.09485 -4.0742,16.28125 0.1797,4.24851 0.9337,6.49786 2.8987,8.64774 2.2957,2.51188 5.2307,2.94944 8.5388,1.27312 z m -756.92064,7.4832 c -3.59891,-0.84489 -7.62489,-4.28915 -9.48563,-8.11507 -1.47437,-3.03142 -1.948,-5.33584 -1.9456,-9.46637 0.004,-8.0368 2.40794,-14.3575 7.51018,-19.7519 5.52144,-5.8376 12.30384,-8.39072 22.28995,-8.39072 4.17034,0 9.39315,0.65734 10.01424,1.26038 0.19654,0.19085 -4.67728,36.71959 -5.71318,42.81962 l -0.17661,1.04 h -4.18672 -4.18675 l 0.2182,-1.64486 c 0.12,-0.90468 0.30724,-2.09268 0.41607,-2.64 l 0.19789,-0.99514 -1.81511,1.65664 c -4.11872,3.75923 -8.7639,5.25405 -13.13693,4.22742 z m 8.08564,-7.1511 c 1.68752,-0.59539 3.73683,-2.00704 5.9702,-4.11254 l 1.76128,-1.66042 1.75261,-12.29693 c 0.96394,-6.76329 1.75261,-12.58105 1.75261,-12.92835 0,-0.59914 -0.16234,-0.6215 -3.17667,-0.43786 -7.0841,0.43159 -11.48883,2.62148 -14.90663,7.41104 -2.85491,4.0008 -4.01379,7.59674 -4.02592,12.4921 -0.0138,5.58349 1.79031,9.46624 5.18439,11.1576 1.92317,0.95834 3.70288,1.07578 5.68813,0.37536 z m 182.0086,6.69152 c -2.5616,-0.93952 -4.84768,-3.13645 -6.03356,-5.7983 -0.51952,-1.16608 -0.72144,-2.37216 -0.82135,-4.90618 -0.1136,-2.88093 0.16803,-5.47782 1.97527,-18.21363 1.15926,-8.16951 2.10774,-14.90151 2.10774,-14.96 0,-0.0585 1.872,-0.10637 4.16,-0.10637 3.69686,0 4.16,0.0604 4.16,0.5423 0,0.29828 -0.94851,7.24628 -2.10781,15.44 -1.46198,10.33303 -2.05952,15.46221 -1.95014,16.7401 0.32077,3.74784 2.10982,5.53357 5.25081,5.24109 2.90541,-0.27053 6.92967,-3.0272 10.73482,-7.35341 l 1.84768,-2.1007 1.99469,-14.17469 1.99465,-14.17469 4.27472,-0.0895 4.27476,-0.0896 -0.16653,0.72956 c -0.0916,0.40125 -1.50733,10.26954 -3.14611,21.92954 l -2.97956,21.2 h -4.18278 -4.18275 l 0.34061,-3.48986 0.3406,-3.48985 -2.08883,1.84813 c -4.53926,4.01616 -8.33504,5.78873 -12.31097,5.74902 -1.24183,-0.0125 -2.8105,-0.22522 -3.48596,-0.47296 z m 378.9881,-0.436 c 0,-0.35322 5.6744,-41.03488 5.9292,-42.50848 l 0.1798,-1.04 h 4.1455 c 3.1021,0 4.146,0.10067 4.1474,0.4 0,0.51024 -5.7319,41.75603 -5.9392,42.72 -0.151,0.70173 -0.2603,0.72 -4.3088,0.72 -2.2855,0 -4.1539,-0.13114 -4.1539,-0.29152 z M 479.04,815.68 c 0,-0.176 0.15251,-0.32 0.33888,-0.32 0.1864,0 0.24989,0.144 0.14112,0.32 -0.10877,0.176 -0.26128,0.32 -0.33888,0.32 -0.0776,0 -0.14112,-0.144 -0.14112,-0.32 z m 634.6371,-7.67827 c -4.0441,-2.46573 -2.3967,-8.956 2.2745,-8.96055 4.8993,-0.005 6.8093,6.12068 2.7686,8.87882 -1.3602,0.92845 -3.595,0.96467 -5.0431,0.0817 z M 542.72,770.8551 c -17.77888,-2.2542 -30.416,-13.51657 -34.98054,-31.1751 -1.47348,-5.70022 -1.90893,-9.62182 -1.91879,-17.28 -0.01,-7.6616 0.45392,-12.22515 1.90263,-18.72 5.06336,-22.70026 21.48473,-41.32963 40.87779,-46.37418 4.99753,-1.29996 9.20374,-1.72057 15.23891,-1.52384 5.98685,0.19514 9.36413,0.749 13.91082,2.28135 11.57641,3.90153 21.19379,13.90403 25.24572,26.25667 2.17524,6.63136 2.93623,12.93312 2.66535,22.07165 -0.61536,20.76019 -7.14768,37.13312 -19.90467,49.89011 -8.1313,8.1313 -17.20637,12.78288 -28.15722,14.43245 -3.4265,0.51613 -11.33027,0.59097 -14.88,0.14089 z m 10.72314,-18.0646 c 5.18153,-0.90359 9.45984,-3.15034 13.73884,-7.21498 8.24429,-7.83126 13.6769,-19.99069 15.20804,-34.03904 0.52563,-4.82272 0.45065,-13.93389 -0.14512,-17.63632 -2.35245,-14.61898 -11.37232,-22.92954 -23.10516,-21.28819 -5.59926,0.78329 -9.96048,3.11478 -14.67315,7.84429 -6.24502,6.26732 -11.51651,16.30364 -13.87881,26.42374 -1.74202,7.46269 -2.42151,18.2961 -1.51687,24.18349 1.77786,11.57001 8.11283,19.89264 16.52909,21.7152 2.75821,0.59731 4.47094,0.59987 7.84314,0.0118 z M 533.44,710.83962 c 0,-0.11021 0.3,-1.47821 0.66666,-3.04 l 0.66665,-2.83962 h 22.2512 22.2512 l -0.23123,2.8 c -0.12714,1.54 -0.29667,2.908 -0.3767,3.04 -0.17466,0.288 -45.22778,0.32746 -45.22778,0.0396 z m 201.92,60.15808 c -7.95456,-0.99434 -15.88298,-3.5177 -23.91517,-7.61143 -4.29849,-2.19078 -10.96707,-6.16368 -10.96163,-6.53049 0.007,-0.45837 3.78762,-19.63271 3.88925,-19.72432 0.0592,-0.0533 1.61955,0.97843 3.46755,2.2928 14.30598,10.17484 27.46912,15.04054 36.34451,13.43462 5.00256,-0.90515 8.85613,-3.57421 10.52295,-7.28829 0.80112,-1.78515 0.87331,-2.24221 0.74764,-4.73328 -0.32556,-6.45408 -3.25123,-9.46672 -20.0951,-20.69241 -14.50717,-9.66842 -20.01059,-14.94666 -23.41667,-22.4586 -1.71658,-3.78585 -2.26938,-6.50233 -2.26416,-11.1263 0.009,-8.11466 2.36841,-14.42074 7.38979,-19.75194 7.01978,-7.45292 16.75386,-11.13888 29.3721,-11.1222 11.0616,0.0147 21.36252,2.97324 32.51894,9.34012 l 3.44,1.96317 v 10.84432 c 0,8.59245 -0.0831,10.79354 -0.4,10.59991 -0.22,-0.13444 -1.984,-1.27223 -3.92,-2.52845 -11.7872,-7.64848 -21.80579,-11.38627 -30.72,-11.46112 -5.79469,-0.0487 -9.63254,1.18528 -12.94269,4.16141 -2.37059,2.13136 -3.35497,4.17756 -3.36499,6.99478 -0.009,2.4232 0.73702,4.22806 2.76147,6.6841 1.44928,1.7582 7.32707,6.0262 15.46621,11.23036 11.81424,7.55399 16.65494,11.27056 20.74032,15.92388 3.39587,3.86793 6.2759,9.46588 7.28589,14.16166 0.51385,2.38915 0.51309,8.64016 0,11.2 -2.63088,13.09037 -12.37687,22.47491 -26.58483,25.59894 -2.34842,0.51636 -12.76941,0.9226 -15.36,0.59876 z m 396.4355,-0.2641 c -15.8707,-2.27059 -28.121,-11.02016 -35.1846,-25.12989 -4.1345,-8.25878 -6.0271,-18.28083 -5.6206,-29.76371 0.4903,-13.8495 3.8563,-24.85318 10.732,-35.08406 8.6925,-12.93421 20.4106,-21.20122 34.1941,-24.12359 3.9901,-0.84595 12.5381,-1.19062 16.474,-0.66425 9.2801,1.24108 16.6165,4.89011 23.2353,11.55689 9.3902,9.45818 13.7615,22.792 12.5673,38.33373 -0.2101,2.73302 -0.4559,5.08886 -0.5463,5.2352 -0.091,0.14634 -16.6286,0.26608 -36.7514,0.26608 h -36.5869 l -0.3717,2 c -0.5859,3.15261 -0.7876,10.61469 -0.3711,13.72998 1.2962,9.69639 5.6287,17.05684 12.8931,21.90384 7.1945,4.80032 15.8082,6.22583 25.9057,4.28714 7.9418,-1.5248 19.474,-6.65741 28.2203,-12.5599 1.0255,-0.69213 1.9075,-1.20951 1.9599,-1.14973 0.052,0.0598 -0.6099,4.42867 -1.4717,9.70867 -1.811,11.09565 -1.1273,9.77146 -6.6883,12.95443 -6.6463,3.80423 -14.6124,6.6712 -22.3846,8.05619 -4.797,0.85482 -15.6611,1.09303 -20.2045,0.44298 z m 34.9245,-75.35043 c 0,-4.4552 -1.4934,-10.19287 -3.5631,-13.68979 -1.5653,-2.64468 -4.5396,-5.4986 -7.1569,-6.8674 -3.4762,-1.81798 -5.7341,-2.30745 -10.56,-2.28924 -3.5583,0.0134 -4.5766,0.14006 -7.04,0.8758 -1.584,0.47306 -3.9524,1.46477 -5.2632,2.20378 -4.502,2.5383 -9.4077,8.13533 -12.4564,14.21162 -0.9111,1.8158 -2.9204,6.61856 -2.9204,6.98038 0,0.0834 11.016,0.15168 24.48,0.15168 h 24.48 z M 879.84752,766.32 c 0.11373,-0.748 5.77581,-37.936 12.5824,-82.64 l 12.37568,-81.28 11.21309,-0.084 11.21305,-0.084 -5.5296,36.404 c -3.04131,20.02221 -5.53244,36.82285 -5.53587,37.33472 -0.006,0.87622 0.19488,0.73542 3.43373,-2.40784 10.37098,-10.06503 20.28496,-15.61955 31.08374,-17.41539 4.32538,-0.7193 11.19645,-0.51226 14.82128,0.44662 8.03152,2.12458 14.23975,7.92595 17.0306,15.9145 1.51299,4.33078 1.93673,7.23676 1.90902,13.09142 -0.0256,5.37616 -0.0922,5.87562 -5.68422,42.56 -3.11216,20.416 -5.7448,37.66 -5.85034,38.32 l -0.19187,1.2 H 961.5591 c -6.1375,0 -11.1591,-0.097 -11.1591,-0.21555 0,-0.11856 2.54013,-17.14656 5.64474,-37.84 6.09644,-40.6352 6.40662,-43.38045 5.42566,-48.0169 -1.27165,-6.0104 -4.46013,-9.24512 -10.1104,-10.25712 -5.5833,-1 -12.46099,1.32122 -19.50765,6.58381 -5.88806,4.39731 -17.63584,16.01014 -18.76128,18.54576 -0.23437,0.528 -2.67177,15.864 -5.41651,34.08 -2.74474,18.216 -5.14112,34.02 -5.32534,35.12 l -0.33492,2 H 890.82755 879.6408 Z m 409.12588,1.28 c 0.01,-0.044 3.7189,-24.56 8.2477,-54.48 l 8.2343,-54.4 11.2214,-0.084 11.2213,-0.084 -1.7037,10.16403 c -1.8304,10.92016 -1.8505,11.07152 -1.4463,10.91069 0.1474,-0.0587 2.0489,-2.3297 4.2255,-5.04676 4.598,-5.73974 9.1803,-10.61465 11.9538,-12.71705 2.6789,-2.03066 6.547,-3.78835 9.7691,-4.43911 3.4003,-0.68675 9.7044,-0.49299 12.8235,0.39415 l 2.08,0.59158 0.084,11.79104 c 0.067,9.39927 0,11.75523 -0.32,11.61459 -5.8206,-2.54169 -8.7514,-3.23961 -13.524,-3.22051 -9.2936,0.0372 -14.7788,3.70909 -23.8495,15.96541 -2.7723,3.74589 -5.8132,8.29664 -6.6531,9.95674 -0.52,1.02768 -1.6538,7.91248 -5.1643,31.36 -2.4739,16.5238 -4.5804,30.43926 -4.681,30.92326 l -0.1829,0.88 h -11.1746 c -6.1461,0 -11.1686,-0.036 -11.1612,-0.08 z M 53.019869,710.1425 c -1.191165,-1.24333 -1.198323,-3.15677 -0.01622,-4.33885 L 53.847283,704.96 h 17.236362 c 9.486368,0 17.236365,0.12448 17.236365,0.27683 0,0.15229 -0.288,0.64298 -0.64,1.0905 -0.352,0.44749 -0.64,0.94857 -0.64,1.11353 0,0.16496 -0.288,0.56058 -0.64,0.87914 -0.352,0.31856 -0.64458,0.80886 -0.650176,1.0896 -0.0056,0.2807 -0.201472,0.7624 -0.43528,1.0704 -0.394567,0.51978 -1.538701,0.56 -15.929952,0.56 H 53.879747 l -0.859869,-0.8975 z m 79.422401,0.3375 c 0.15823,-0.308 0.62105,-1.28 1.02849,-2.16 0.40744,-0.88 1.009,-1.996 1.33681,-2.48 l 0.59601,-0.88 h 34.34825 34.34825 l -0.15675,0.72 c -0.27225,1.25053 -1.47376,3.9489 -2.1373,4.8 -0.41101,0.5272 -2.46421,0.56 -35.04402,0.56 -32.85572,0 -34.59287,-0.0285 -34.31974,-0.56 z m 103.08255,0.32 c 0.0135,-0.67322 0.91504,-2.6847 1.86854,-4.16906 l 1.07336,-1.67094 h 8.28664 c 5.38505,0 8.28664,0.11357 8.28664,0.32435 0,0.17837 -0.12824,0.57437 -0.28498,0.88 -0.6457,1.25898 -1.6065,3.48243 -1.79575,4.15565 l -0.2024,0.72 h -8.61843 c -4.74014,0 -8.61627,-0.108 -8.61362,-0.24 z m 40.9697,-0.64 c 0.17528,-0.484 0.47898,-1.24 0.6749,-1.68 0.19591,-0.44 0.49763,-1.16 0.67048,-1.6 0.17285,-0.44 0.42127,-1.016 0.55205,-1.28 0.20884,-0.42157 4.52744,-0.48992 35.48291,-0.56141 36.27887,-0.0838 35.98847,-0.0926 34.97804,1.05741 -0.14692,0.1672 -0.51812,1.024 -0.82487,1.904 -0.30675,0.88 -0.71488,1.924 -0.90694,2.32 l -0.34925,0.72 h -35.29799 -35.29801 z m 92.14548,0.25888 c 0,-0.3416 0.144,-0.71011 0.32,-0.81888 0.176,-0.10877 0.32,-0.47923 0.32,-0.82323 0,-0.344 0.13456,-0.87549 0.29904,-1.18112 0.16448,-0.3056 0.48762,-1.02365 0.71811,-1.59565 l 0.41907,-1.04 h 16.08189 c 17.96583,0 16.65559,-0.19648 15.44189,2.31555 -0.352,0.72858 -0.64,1.4849 -0.64,1.68077 0,0.19584 -0.18,0.74368 -0.4,1.21738 l -0.4,0.86131 -16.08,0.003 c -15.70454,0.003 -16.08,-0.0122 -16.08,-0.61863 z m 47.616,0.23712 c 0.2112,-0.2112 0.384,-0.57277 0.384,-0.80349 0,-0.37225 0.68176,-2.05952 1.68595,-4.17251 l 0.34221,-0.72 h 42.53133 42.53136 l -0.17757,0.88 c -0.0977,0.484 -0.33987,1.852 -0.53827,3.04 l -0.36071,2.16 h -43.39116 c -33.74868,0 -43.3058,-0.0853 -43.00714,-0.384 z M 609.28,709 c 0,-1.12198 0.09,-2.48998 0.2,-3.04 l 0.2,-1 h 29.13334 c 16.02333,0 29.05994,0.0734 28.97028,0.16307 -0.0897,0.0897 -1.82372,0.51469 -3.85338,0.94451 -3.9312,0.83245 -8.03552,2.12647 -12.33398,3.88861 L 648.95251,711.04 H 629.11626 609.28 Z"
     id="path3690"
     inkscape:connector-curvature="0"
     inkscape:export-xdpi="599.99268"
     inkscape:export-ydpi="599.99268" />
</svg>
