<svg id="svg3680" xmlns="http://www.w3.org/2000/svg" viewBox="0 0 1316.82 324.09"><defs><style>.cls-1{fill:#fff;}</style></defs><title>MAudioLogoWhite</title><path id="path3690" class="cls-1" d="M83.2,868l-2.88-.49c-1.32-.21-3.19-.6-4.16-.85l-2.72-.72A42.43,42.43,0,0,1,63,861.1a31.34,31.34,0,0,1-11.8-15.64,57.92,57.92,0,0,1-2.13-20.66c.45-4.73.62-6.1,1.19-9.76a136.67,136.67,0,0,1,3.94-17.76c.41-1.41,1.07-3.78,1.47-5.28,1.17-4.39,4.56-14.39,7.22-21.28,1.35-3.52,2.95-7.7,3.55-9.28s1.61-4.1,2.25-5.6,1.83-4.38,2.66-6.4,2.39-5.58,3.47-7.9,2-4.29,2-4.37,5.34-11.36,5.83-12.21c.21-.35,2-3.81,3.94-7.68,6.51-12.88,12.08-23.23,18-33.44,1.68-2.9,3.59-6.22,4.26-7.36,2.73-4.73,9.39-15.9,11.83-19.84,2-3.3,2.19-3.54,4.78-7.89,1.14-1.91,2.4-3.92,2.8-4.46a4.52,4.52,0,0,0,.74-1.22,14.72,14.72,0,0,1,1.28-2.11,19,19,0,0,0,1.28-2,29.21,29.21,0,0,1,1.55-2.5c.85-1.29,2.72-4.21,4.16-6.5s3.54-5.6,4.68-7.36c1.93-3,3.08-4.86,4.93-8,.41-.71,1.67-2.69,2.8-4.4s2-3.2,2-3.3a17.6,17.6,0,0,1,1.28-2.11,21.33,21.33,0,0,0,1.28-2.07,26.44,26.44,0,0,1,1.4-2.29c.77-1.19,1.81-2.86,2.32-3.72s1.06-1.8,1.24-2.09l1.73-2.92c.77-1.32,2.08-3.54,2.91-4.95s2.24-4,3.14-5.83,2-3.81,2.39-4.48a87.9,87.9,0,0,0,4.87-11.75c1.07-3.81.65-7.07-1-7.82s-6.29-.23-10.36,1.27a64.93,64.93,0,0,0-9.73,5.16q-12.28,8.22-29.8,29.34c-3.92,4.74-7,8.79-13.49,17.9-4.44,6.21-13.86,20.6-16.17,24.69a13.82,13.82,0,0,1-1,1.6c-.39.48-3.17,5.17-4.83,8.16l-3.59,6.4c-1.49,2.64-3.51,6.31-4.49,8.16s-2.09,3.86-2.47,4.48c-.9,1.47-11.26,22.18-12.63,25.28-2.43,5.46-2.91,6.4-3.25,6.4-.5,0,.09-3,1-5.28.15-.35.69-1.72,1.21-3s1.4-3.41,2-4.64,1.71-4,2.56-6.24c1.37-3.55,3-7.28,4.34-10.05A4.89,4.89,0,0,0,73,665.2c0-.38,3.19-7.21,7.35-15.76,1.72-3.52,4-8.13,5-10.24s2.13-4.22,2.45-4.69,1-1.63,1.49-2.56c1.76-3.36,7.53-13.58,8.58-15.23a12.57,12.57,0,0,0,1.07-1.86c0-.19,6-9.56,8-12.46l2.63-3.87a254.85,254.85,0,0,1,17.66-22.68A162.24,162.24,0,0,1,144.65,559c12.77-9.85,24.69-14.61,34.81-13.88,9.08.65,13.44,3,15.81,8.46l1,2.44,0,5.76c0,5.88-.18,6.92-1.93,13.44a207.41,207.41,0,0,1-10.27,27c-.6,1.32-1.63,3.55-2.27,5-1.44,3.15-11.6,23.32-13.62,27-.81,1.5-2.42,4.57-3.57,6.83s-3,5.78-4.16,7.8-2.06,3.73-2.06,3.79-.48.94-1.07,2-2,3.66-3.16,5.86c-2.59,5-4.91,9.37-5.85,11-.39.7-1.48,2.72-2.41,4.48s-2.11,4-2.63,5c-1.76,3.27-6.57,12.29-9,17-3.73,7.08-19.54,39.23-22.35,45.48-4.41,9.78-6.72,15.24-10.7,25.24-4.67,11.77-5.47,13.94-7.75,21s-5,17.28-6.09,22.72c-.2,1.06-.5,2.52-.67,3.26a21.5,21.5,0,0,0,.37,8.74c2.21,8,9.83,13.12,19.37,13.12q18.54,0,38.23-18c2.19-2,4.7-4.5,5.57-5.54s1.67-2,1.77-2c2.47-2.31,8.92-12.49,14.14-22.34.68-1.29,1.57-2.88,2-3.52s1.47-2.55,2.35-4.22,2.26-4.19,3.05-5.6c1.5-2.7,9.52-18.07,9.52-18.26s2.46-5.12,5.48-11.24,7.49-15.24,9.95-20.26,5.26-10.49,6.19-12.16a56.84,56.84,0,0,0,2.87-6c.63-1.65,3.64-8,6.68-14.08s6.45-13,7.57-15.4,2.42-5,2.86-5.76,1.31-2.52,1.9-3.84c1-2.18,4.29-8.7,9.63-19,5-9.67,7.19-13.88,8-15.36.48-.88,1.88-3.54,3.11-5.92,3.46-6.71,5.17-9.93,6.3-11.84.58-1,1.72-3,2.54-4.48s1.76-3.15,2.08-3.68,1.19-2.11,1.95-3.52,1.65-2.94,2-3.41a4.55,4.55,0,0,0,.59-1,28.07,28.07,0,0,1,1.62-2.79c.89-1.42,1.71-2.81,1.82-3.09.34-.89,6.81-11.31,9.65-15.53,1.51-2.26,2.89-4.34,3.07-4.63s1.4-2,2.72-3.82c2.44-3.38,2.65-3.66,5.06-6.9,3.74-5,10.49-12,14.43-14.92a44.89,44.89,0,0,1,5.74-3.47c2.93-1.42,3.16-1.48,6.51-1.62,5.37-.22,6.64.48,8.67,4.75a19.75,19.75,0,0,1,2,8.31,99.94,99.94,0,0,1-1.23,14.08c-.8,3.42-2.37,10.65-2.53,11.68-.5,3.19-7.53,24.36-10.09,30.4-.37.88-1.31,3.33-2.08,5.44-3.29,9-5.75,15.49-8.46,22.24-1.59,4-3.54,8.93-4.32,11-1.79,4.79-4.38,11.28-5.43,13.6-.44,1-1.19,2.77-1.67,4s-1,2.53-1.14,2.88c-1,2.29-2.3,5.61-4.52,11.2-1.4,3.52-2.88,7.19-3.3,8.16s-1.28,3.13-1.93,4.8-1.86,4.7-2.7,6.72c-3.25,7.87-15.87,43.39-17.28,48.64-.16.62-.8,2.78-1.41,4.8-2.21,7.31-4,13.63-4.35,15.2-.19.88-.7,2.9-1.13,4.48a194.18,194.18,0,0,0-5.28,26.4c-1.09,7.39-1.45,21.58-.68,26.56,1.65,10.6,6.25,17.2,13.27,19.07a24,24,0,0,0,9.88-.18c7.37-1.86,14-7,22.24-17.1,1-1.2,4.14-5.66,7.1-10,2.78-4.05,4-6.08,7.43-12s3.56-6.24,8-14.82c6.18-12,10.57-20.91,14.21-28.8.49-1.06,1.86-4,3.06-6.56,2.1-4.49,3.29-7.08,4.47-9.76.32-.7,1.23-2.69,2.05-4.41s1.47-3.2,1.47-3.27.83-1.83,1.85-3.91,2.41-5.07,3.07-6.65,1.84-4.25,2.6-5.92c3.67-8,6.88-15.3,6.88-15.53s1.22-2.77,2.72-5.93,3-6.43,3.4-7.27,1.14-2.52,1.71-3.76,1.81-4,2.75-6.24S365,680.87,366,679s2.49-5.25,3.49-7.52,2.19-4.92,2.63-5.89,1.06-2.34,1.37-3,1.71-3.73,3.12-6.72c4.67-9.92,8.06-17.34,11.34-24.8,1-2.37,2.25-4.94,2.7-5.69s1.94-3.64,3.34-6.41,3.33-6.53,4.32-8.38,2.81-5.38,4.06-7.84c5.72-11.34,11.66-22.11,16-29,.72-1.14,1.57-2.53,1.88-3.08s1.27-2,2.13-3.2,1.83-2.63,2.16-3.15a28.61,28.61,0,0,1,2.67-3.53c.86-1.06,1.69-2.16,1.85-2.45.66-1.17,5.27-5.94,7.82-8.1,6-5.08,9.26-6.45,14.7-6.19,2.42.11,2.95.25,4.2,1.08,3.61,2.42,5.18,7.27,5,15.29A116.52,116.52,0,0,1,456,587.68c-.33,1.06-.92,3-1.3,4.32-3.14,10.9-4,13.54-7.37,23.36-1.43,4.14-3.58,10.4-4.77,13.92s-2.82,8.06-3.62,10.08-1.95,5.12-2.56,6.88c-1.67,4.8-4.65,12.71-6.14,16.32-1.34,3.25-2.45,6.14-5.6,14.64-3.38,9.1-5,13.34-5.92,15.44-.23.53-.81,2-1.29,3.2s-1,2.53-1.14,2.88c-1.56,3.73-3,7.38-4.84,12.48-2.35,6.4-3.82,10.37-5.21,14.08s-2.4,6.56-3.38,9.52c-.51,1.54-1.68,4.78-2.58,7.2-2.28,6-6.55,19-8.92,27.12-1.08,3.7-2.23,7.58-2.55,8.64-.53,1.73-1.69,6.31-3.51,13.92a216.75,216.75,0,0,0-4.52,24c-.45,4.21-.14,20,.45,22.65,3,13.35,19.84,18.94,40.68,13.49A74.88,74.88,0,0,0,432,848.66a122.63,122.63,0,0,0,13.15-6.32c15.63-8.85,22.95-14.08,28.57-20.41l3.81-4.29c1.87-2.08,1.92-1.39.11,1.4-3.38,5.2-14.77,17.31-19.86,21.1a166.47,166.47,0,0,1-15.19,10.42,132.83,132.83,0,0,1-13.68,7.07l-1.6.65-1.52.63a84.74,84.74,0,0,1-15,4,58.35,58.35,0,0,1-15,0,32.37,32.37,0,0,1-18.08-9.29c-3.54-3.59-5.05-6.75-6.56-13.66-2-9,.25-29.17,5.16-47.36.17-.66.46-1.74.64-2.4.83-3.17,3.58-12.72,4.26-14.83.42-1.3.95-3,1.19-3.81a7,7,0,0,1,.69-1.74,1.65,1.65,0,0,0,.26-.89,2.74,2.74,0,0,1,.31-1.13,30.74,30.74,0,0,0,1.11-3c1.33-4,5.51-15.71,6.25-17.44.15-.35.58-1.5,1-2.56s.82-2.21,1-2.56,1.09-2.8,2.08-5.44c3.14-8.32,4.35-11.5,4.65-12.24.17-.39.44-1.08.62-1.52s.45-1.12.62-1.52,1.54-4,3.06-7.92c2.69-7,2.95-7.65,3.72-9.52.56-1.36.69-1.69,3.64-9.36,1.53-4,2.89-7.49,3-7.84s.86-2.22,1.6-4.16,1.46-3.81,1.61-4.16c.46-1.1,2.76-7.22,4-10.56.64-1.76,1.29-3.49,1.44-3.84s.58-1.5,1-2.56.82-2.21,1-2.56.57-1.5,1-2.56.82-2.21,1-2.56S428,651,429,648.16s2-5.69,2.29-6.4.7-1.93,1-2.72.59-1.73.75-2.08c.67-1.47,9.49-27.87,11.34-33.92.65-2.11,1.6-5.21,2.12-6.88s1.1-3.61,1.3-4.32.62-2.07.92-3,.88-2.84,1.26-4.16.83-2.76,1-3.2a70.78,70.78,0,0,0,2.55-10.24c.2-1.49.51-3.65.69-4.8a21.89,21.89,0,0,0-.42-7.76,9,9,0,0,0-3.45-4.23c-.62-.33-1.8-.44-4.06-.38-2.9.07-3.38.17-5.56,1.22-6.19,3-11.16,8.41-17.86,19.62-1.58,2.65-3.49,6-4.24,7.37-2,3.85-8,16-9.4,19-.66,1.5-1.62,3.63-2.13,4.74a21.48,21.48,0,0,0-.92,2.2c0,.09-.59,1.41-1.31,2.93L400,621.28c-.91,1.94-2.59,5.9-3.73,8.8-1.92,4.87-4.51,11.32-5.24,13s-1,2.31-1.92,4.72c-.55,1.41-1.12,2.85-1.27,3.2s-.44,1.15-.66,1.76-.57,1.55-.79,2.08c-2.39,5.8-3,7.4-3,7.6a19,19,0,0,1-1,2.4c-1.39,3.06-1.32,2.88-3.66,8.88-1.17,3-2.33,5.87-2.57,6.4s-1.5,3.63-2.8,6.88-2.66,6.57-3,7.36-1,2.38-1.46,3.52-1.6,4-2.57,6.4-2.36,5.83-3.09,7.68-1.69,4.23-2.14,5.28c-1.08,2.57-1.09,2.59-2.94,7.36-1.72,4.48-6.16,15.37-6.92,17-.26.55-2.13,5-4.17,9.92s-4.22,10.08-4.85,11.49-1.35,3.07-1.61,3.68-.9,2-1.41,3.14-.92,2.07-.92,2.14-.79,1.8-1.76,3.86-1.76,3.79-1.76,3.87c0,.46-14.8,30.39-16.82,34l-2,3.68c-1.58,2.85-5.5,9.23-6.93,11.28a19.35,19.35,0,0,0-1.4,2.17,113.88,113.88,0,0,1-6.6,9.59,73.65,73.65,0,0,1-9.37,10.72c-7.37,7.32-16.77,12.71-25,14.34-6,1.19-7.63,1.27-11.84.54a25.76,25.76,0,0,1-7.36-2,29,29,0,0,1-9.79-6.4c-2.42-2.41-2.78-2.95-5.36-8.12a55.15,55.15,0,0,1-2.77-6.06,5.84,5.84,0,0,0-.45-1.6,63.6,63.6,0,0,1-2.16-8.59c-1.59-9.41-.75-22.84,2.51-40a116.63,116.63,0,0,1,3.47-14.4c1.15-4,1.47-5.07,2-7.12,1.19-4.35,7.16-22.15,9.15-27.28.47-1.23,1.56-4,2.4-6.24,1.83-4.75,10.74-27.23,11.39-28.72.25-.57.67-1.54.93-2.16s.69-1.59.95-2.16,1.39-3.27,2.52-6,2.59-6.11,3.24-7.52,1.81-4.07,2.57-5.92,2.2-5.16,3.2-7.36,2.37-5.37,3-7,1.65-4,2.17-5.12c2.45-5.41,2.68-5.94,4.07-9.28.86-2.05,1.42-3.34,2.92-6.65a16.88,16.88,0,0,0,.76-1.85c0-.25,3.06-7.87,4.49-11.18.68-1.58,2.1-5.11,3.15-7.84s2.42-6.18,3-7.68c2.76-6.75,5.06-12.54,6-15,.55-1.48,1.22-3.21,1.49-3.84A33.06,33.06,0,0,0,303.8,599c.26-.79.87-2.38,1.35-3.52a109.49,109.49,0,0,0,4.14-11.68c.24-1.06.59-2.5.78-3.2A76.58,76.58,0,0,0,312,571a91.6,91.6,0,0,0,1.17-10.72c.19-3.65.18-3.69-.63-4.44a1.78,1.78,0,0,0-1.91-.55c-4.74.89-14.09,12.15-22.25,26.79-1.44,2.58-2.61,4.79-2.61,4.91s-1.3,2.86-2.88,6.09-2.88,6-2.88,6-1,2.28-2.24,4.85-2.24,4.74-2.24,4.81-.85,1.91-1.88,4.06c-2.22,4.61-4.2,8.87-4.2,9s-.69,1.54-1.53,3.26-2.09,4.5-2.77,6.17c-1.17,2.85-2.18,5.13-4.32,9.76-1.66,3.58-4.26,9.27-6,13.12-1,2.11-2.38,5.17-3.16,6.8s-1.66,3.58-1.95,4.32a8.23,8.23,0,0,1-.8,1.66,1.22,1.22,0,0,0-.27.7,17,17,0,0,1-1.12,2.82,28,28,0,0,0-1.12,2.6,11,11,0,0,1-.6,1.52c-.33.74-1.28,3.07-2.11,5.18s-1.63,4.13-1.78,4.48c-1.25,2.87-3.21,7.71-4.77,11.78-1,2.67-2.4,6-3.06,7.42s-1.75,4-2.42,5.76c-1.17,3.1-5.14,13.1-5.71,14.4-.16.35-.52,1.18-.81,1.83s-.87,2.1-1.29,3.2c-1.17,3.1-3.17,7.79-4.66,11-1.64,3.49-5.36,12-7.08,16.16-.69,1.67-1.68,3.95-2.2,5S209,763,209,763.06c0,.33-4,8.89-8.92,19.13-1.43,3-2.6,5.54-2.6,5.71a3.89,3.89,0,0,1-.45,1.17c-.25.47-1.71,3.44-3.23,6.61s-3.58,7.2-4.57,9l-2.4,4.32c-.34.62-1.36,2.32-2.26,3.78L181.27,818c-2.31,3.76-10.18,14.54-12.65,17.34-6.74,7.63-9.47,10.25-15.5,14.9s-17.14,10.22-25.4,12.66c-1.52.45-3.19,1-3.72,1.12s-1.61.45-2.4.63l-2.72.63c-4.11,1-9.47,2-13.76,2.54-2,.26-20.69.39-21.92.15Zm847.13-5.28c-11.2-1.13-17.76-7-19-17.1-.92-7.27,1.6-14.43,7.21-20.52a25.41,25.41,0,0,1,12.27-7.69c2.34-.7,3.65-.87,7.7-1,2.68-.09,4.88-.18,4.89-.2s.7-4.79,1.53-10.6L946.42,795l4.27-.09,4.26-.09-.18,1c-.1.58-2.22,15.52-4.71,33.21s-4.62,32.26-4.73,32.39c-.36.38-5.78,1.16-9.17,1.31a48,48,0,0,1-5.83-.11Zm7.54-7.19c.11-.11,4.47-30.89,4.52-31.92,0-.42-5.17-.25-7.51.24-9.67,2-16.57,11.89-14.89,21.28,1.11,6.18,4.82,9.67,11.21,10.55,1.95.27,6.35.17,6.67-.15Zm348.05,7.18c-7.06-1-11.91-5.9-13.47-13.72a28.94,28.94,0,0,1-.36-7.36c.21-5.69.88-8.53,3.08-13,2.75-5.56,7-9.7,11.71-11.41a22.18,22.18,0,0,1,10.6-.44c5.39,1.56,9.36,5.8,11,11.78.62,2.22.73,3.36.71,7.27,0,7.08-1.5,12.66-4.56,17.32-4.74,7.21-11.3,10.56-18.74,9.54Zm6.24-8.14c6.45-3.27,10.45-16.57,7.67-25.56-1.23-4-3.56-6-6.88-6s-5.73,1.65-8.15,5.37a27.32,27.32,0,0,0-4.08,16.28c.18,4.25.93,6.5,2.9,8.65,2.3,2.51,5.23,3,8.54,1.27ZM535.24,862c-3.6-.84-7.63-4.29-9.49-8.11a18.89,18.89,0,0,1-1.94-9.47c0-8,2.4-14.35,7.51-19.75,5.52-5.84,12.3-8.39,22.29-8.39,4.17,0,9.39.66,10,1.26.2.19-4.68,36.72-5.71,42.82l-.18,1h-8.37l.22-1.64c.12-.91.3-2.1.41-2.64l.2-1-1.82,1.66c-4.11,3.76-8.76,5.25-13.13,4.22Zm8.08-7.15a18.36,18.36,0,0,0,6-4.11l1.76-1.66,1.76-12.3c1-6.76,1.75-12.58,1.75-12.93,0-.59-.16-.62-3.18-.43-7.08.43-11.49,2.62-14.9,7.41a19.77,19.77,0,0,0-4,12.49c0,5.58,1.79,9.47,5.19,11.16A6.82,6.82,0,0,0,543.32,854.89Zm182,6.69a11,11,0,0,1-6-5.79,12.59,12.59,0,0,1-.82-4.91c-.12-2.88.17-5.48,2-18.21,1.16-8.17,2.11-14.91,2.11-15a39.79,39.79,0,0,1,4.16-.11c3.7,0,4.16.06,4.16.54,0,.3-1,7.25-2.11,15.44-1.46,10.34-2.06,15.46-1.95,16.74.32,3.75,2.11,5.54,5.25,5.24,2.91-.27,6.93-3,10.74-7.35l1.85-2.1,2-14.18,2-14.17,4.28-.09,4.27-.09-.16.73c-.09.4-1.51,10.27-3.15,21.93l-3,21.2h-8.36l.34-3.49.34-3.49-2.09,1.85c-4.54,4-8.34,5.79-12.31,5.75a13.49,13.49,0,0,1-3.49-.48Zm379-.43c0-.35,5.67-41,5.93-42.51l.18-1h4.14c3.11,0,4.15.1,4.15.4,0,.51-5.73,41.76-5.94,42.72-.15.7-.26.72-4.31.72a15.18,15.18,0,0,1-4.15-.29ZM479,815.68a.33.33,0,0,1,.34-.32c.19,0,.25.14.14.32s-.26.32-.34.32S479,815.86,479,815.68ZM1113.68,808c-4-2.46-2.4-9,2.27-9a4.84,4.84,0,0,1,2.77,8.88A5,5,0,0,1,1113.68,808Zm-571-37.14c-17.78-2.26-30.42-13.52-35-31.18-1.47-5.7-1.91-9.62-1.92-17.28a75.31,75.31,0,0,1,1.9-18.72c5.07-22.7,21.49-41.33,40.88-46.37a49.5,49.5,0,0,1,15.24-1.53,43,43,0,0,1,13.91,2.28C589.33,662,598.94,672,603,684.32c2.17,6.63,2.93,12.93,2.66,22.07-.61,20.76-7.15,37.13-19.9,49.89a48.64,48.64,0,0,1-28.16,14.43,76.18,76.18,0,0,1-14.88.15Zm10.72-18.07a25.53,25.53,0,0,0,13.74-7.21c8.25-7.84,13.68-20,15.21-34a91,91,0,0,0-.15-17.64c-2.35-14.62-11.37-22.93-23.1-21.29-5.6.79-10,3.12-14.67,7.85-6.25,6.26-11.52,16.3-13.88,26.42-1.74,7.46-2.42,18.3-1.52,24.18,1.78,11.57,8.11,19.9,16.53,21.72a17.37,17.37,0,0,0,7.84,0Zm-20-41.95c0-.11.3-1.48.67-3l.66-2.84h44.51l-.24,2.8a21.13,21.13,0,0,1-.37,3c-.18.29-45.23.33-45.23,0ZM735.36,771a72.47,72.47,0,0,1-23.92-7.61c-4.29-2.19-11-6.17-11-6.53s3.79-19.64,3.89-19.73a32.34,32.34,0,0,1,3.47,2.29c14.31,10.18,27.47,15,36.34,13.44,5-.91,8.86-3.58,10.53-7.29.8-1.78.87-2.24.75-4.73-.33-6.46-3.26-9.47-20.1-20.7-14.51-9.66-20-14.94-23.42-22.45a23.56,23.56,0,0,1-2.26-11.13c0-8.11,2.37-14.42,7.39-19.75,7-7.45,16.75-11.14,29.37-11.12,11.06,0,21.36,3,32.52,9.34l3.44,2v10.84c0,8.6-.08,10.8-.4,10.6s-2-1.27-3.92-2.53c-11.79-7.64-21.81-11.38-30.72-11.46-5.79,0-9.63,1.19-12.94,4.17a8.72,8.72,0,0,0-3.37,7c0,2.42.74,4.23,2.76,6.68,1.45,1.76,7.33,6,15.47,11.23,11.81,7.56,16.65,11.28,20.74,15.93a34.21,34.21,0,0,1,7.29,14.16,41.18,41.18,0,0,1,0,11.2c-2.63,13.09-12.38,22.47-26.59,25.6a93,93,0,0,1-15.36.6Zm396.44-.27c-15.88-2.27-28.13-11-35.19-25.13-4.13-8.26-6-18.28-5.62-29.76.49-13.85,3.86-24.85,10.73-35.08,8.69-12.94,20.41-21.21,34.2-24.13a66.51,66.51,0,0,1,16.47-.66,38.32,38.32,0,0,1,23.24,11.55c9.39,9.46,13.76,22.8,12.56,38.34-.21,2.73-.45,5.09-.54,5.23s-16.63.27-36.75.27h-36.59l-.37,2a62.52,62.52,0,0,0-.37,13.73c1.29,9.7,5.62,17.06,12.89,21.9s15.81,6.23,25.9,4.29c8-1.52,19.48-6.66,28.22-12.56a9.58,9.58,0,0,1,2-1.15c.06.06-.61,4.43-1.47,9.71-1.81,11.1-1.12,9.77-6.69,13a71.16,71.16,0,0,1-22.38,8.06,90.75,90.75,0,0,1-20.2.44Zm34.92-75.35a30.15,30.15,0,0,0-3.56-13.69,20.16,20.16,0,0,0-7.16-6.86c-3.48-1.82-5.73-2.31-10.56-2.29a19.69,19.69,0,0,0-7,.87,31.57,31.57,0,0,0-5.26,2.21c-4.51,2.53-9.41,8.13-12.46,14.21a66.32,66.32,0,0,0-2.92,7c0,.08,11,.15,24.48.15h24.48ZM879.85,766.32c.11-.75,5.77-37.94,12.58-82.64l12.38-81.28,11.21-.08,11.21-.09-5.53,36.41c-3,20-5.53,36.82-5.53,37.33,0,.88.19.74,3.43-2.41,10.37-10.06,20.28-15.62,31.08-17.41a43.69,43.69,0,0,1,14.83.44,24.54,24.54,0,0,1,17,15.92c1.51,4.33,1.93,7.24,1.9,13.09,0,5.38-.09,5.88-5.68,42.56-3.11,20.42-5.74,37.66-5.85,38.32l-.19,1.2H961.56c-6.14,0-11.16-.1-11.16-.22s2.54-17.14,5.64-37.84c6.1-40.63,6.41-43.38,5.43-48-1.27-6-4.46-9.25-10.11-10.26s-12.46,1.32-19.51,6.58c-5.89,4.4-17.63,16-18.76,18.55-.23.53-2.67,15.86-5.42,34.08s-5.14,34-5.32,35.12l-.34,2H879.64ZM1289,767.6s3.72-24.56,8.25-54.48l8.24-54.4,11.22-.08,11.22-.09-1.71,10.17c-1.83,10.92-1.85,11.07-1.44,10.91.15-.06,2-2.33,4.22-5,4.6-5.74,9.18-10.61,12-12.72a26.15,26.15,0,0,1,9.77-4.44,35,35,0,0,1,12.82.4l2.08.59.08,11.79c.07,9.4,0,11.76-.32,11.62-5.82-2.55-8.75-3.24-13.52-3.23-9.29,0-14.78,3.71-23.85,16a104.29,104.29,0,0,0-6.65,10c-.52,1-1.66,7.91-5.17,31.36-2.47,16.52-4.58,30.44-4.68,30.92l-.18.88h-11.18c-6.14,0-11.16,0-11.16-.08ZM53,710.14a3.09,3.09,0,0,1,0-4.34l.85-.84H71.08c9.49,0,17.24.12,17.24.28a3.35,3.35,0,0,1-.64,1.09,3.18,3.18,0,0,0-.64,1.11,2,2,0,0,1-.64.88,2,2,0,0,0-.65,1.09,2.24,2.24,0,0,1-.44,1.07c-.39.52-1.53.56-15.93.56H53.88Zm79.42.34c.16-.31.62-1.28,1-2.16a21.9,21.9,0,0,1,1.34-2.48l.59-.88h68.7l-.16.72a17.8,17.8,0,0,1-2.13,4.8c-.41.53-2.47.56-35.05.56-32.85,0-34.59,0-34.32-.56Zm103.08.32a13.21,13.21,0,0,1,1.87-4.17l1.08-1.67h8.28c5.39,0,8.29.11,8.29.32a2.64,2.64,0,0,1-.28.88,36,36,0,0,0-1.8,4.16l-.2.72h-8.62a78.67,78.67,0,0,1-8.62-.24Zm41-.64c.18-.48.48-1.24.68-1.68s.5-1.16.67-1.6.42-1,.55-1.28c.21-.42,4.53-.49,35.48-.56,36.28-.09,36-.09,35,1.06A9.63,9.63,0,0,0,348,708c-.31.88-.72,1.92-.91,2.32l-.35.72H276.18Zm92.15.26a1.06,1.06,0,0,1,.32-.82,1.06,1.06,0,0,0,.32-.82,2.82,2.82,0,0,1,.3-1.18c.16-.31.49-1,.72-1.6l.42-1H386.8c18,0,16.65-.2,15.44,2.32a7.13,7.13,0,0,0-.64,1.68,4.32,4.32,0,0,1-.4,1.21l-.4.87H384.72c-15.7,0-16.08,0-16.08-.62Zm47.62.24a1.4,1.4,0,0,0,.38-.81,21.32,21.32,0,0,1,1.69-4.17l.34-.72h85.06l-.18.88c-.09.48-.34,1.85-.53,3l-.37,2.16H459.26c-33.75,0-43.3-.09-43-.38Zm193-1.66a20.65,20.65,0,0,1,.2-3l.2-1h29.13c16,0,29.06.07,29,.16a33.58,33.58,0,0,1-3.85,1A70.75,70.75,0,0,0,651.6,710L649,711H609.28Z" transform="translate(-48.89 -544.02)"/></svg>